inDegrees=no
num_controls=7
num_derivatives=13
num_iterations=83
num_multipliers=7
num_parameters=0
num_slacks=7
num_states=26
objective=5.619147
objective_accelerations=0.285575
objective_balance=0.029591
objective_effort=0.376869
objective_height=4.839542
objective_ligament=0.087570
solver_duration=724.419969
status=Solve_Succeeded
success=true
DataType=double
version=3
OpenSimVersion=4.4-2022-07-23-0e9fedc
endheader
time	/jointset/ground_pelvis/pelvis_tilt/value	/jointset/ground_pelvis/pelvis_tx/value	/jointset/ground_pelvis/pelvis_ty/value	/jointset/hip_r/hip_flexion_r/value	/jointset/hip_r/hip_adduction_r/value	/jointset/hip_r/hip_rotation_r/value	/jointset/back/lumbar_extension/value	/jointset/patellofemoral_r/patellar_flexion_r/value	/jointset/knee_r/knee_flexion_r/value	/jointset/knee_r/knee_adduction_r/value	/jointset/knee_r/knee_rotation_r/value	/jointset/ankle_r/ankle_angle_r/value	/jointset/subtalar_r/subtalar_angle_r/value	/jointset/ground_pelvis/pelvis_tilt/speed	/jointset/ground_pelvis/pelvis_tx/speed	/jointset/ground_pelvis/pelvis_ty/speed	/jointset/hip_r/hip_flexion_r/speed	/jointset/hip_r/hip_adduction_r/speed	/jointset/hip_r/hip_rotation_r/speed	/jointset/back/lumbar_extension/speed	/jointset/patellofemoral_r/patellar_flexion_r/speed	/jointset/knee_r/knee_flexion_r/speed	/jointset/knee_r/knee_adduction_r/speed	/jointset/knee_r/knee_rotation_r/speed	/jointset/ankle_r/ankle_angle_r/speed	/jointset/subtalar_r/subtalar_angle_r/speed	/forceset/tau_hip_flexion_r	/forceset/tau_hip_adduction_r	/forceset/tau_hip_rotation_r	/forceset/tau_knee_flexion_r	/forceset/tau_ankle_angle_r	/forceset/tau_subtalar_angle_r	/forceset/tau_lumbar_extension	lambda_cid13_p0	lambda_cid14_p0	lambda_cid14_p1	lambda_cid14_p2	lambda_cid14_p3	lambda_cid14_p4	lambda_cid14_p5	/jointset/ground_pelvis/pelvis_tilt/accel	/jointset/ground_pelvis/pelvis_tx/accel	/jointset/ground_pelvis/pelvis_ty/accel	/jointset/hip_r/hip_flexion_r/accel	/jointset/hip_r/hip_adduction_r/accel	/jointset/hip_r/hip_rotation_r/accel	/jointset/back/lumbar_extension/accel	/jointset/patellofemoral_r/patellar_flexion_r/accel	/jointset/knee_r/knee_flexion_r/accel	/jointset/knee_r/knee_adduction_r/accel	/jointset/knee_r/knee_rotation_r/accel	/jointset/ankle_r/ankle_angle_r/accel	/jointset/subtalar_r/subtalar_angle_r/accel	gamma_cid13_p0	gamma_cid14_p0	gamma_cid14_p1	gamma_cid14_p2	gamma_cid14_p3	gamma_cid14_p4	gamma_cid14_p5
1.5	-0.05501437007747077	0.08591744483231332	0.893909517734209	0.5189841321142998	-0.2209723475371607	-0.1682739953185197	-0.2603178282072604	0.5457766619147181	0.5457766619146636	0.04286341259941058	0.1743244112704954	0.2504748756397807	0.0655312185510801	0.08026263567105127	0.06628506982909375	0.230358780397063	-1.049131704245084	0.01483655688329483	-0.2313173836003151	0.696376705265341	-1.501973305261638	-1.50197330526156	0.2780532101035786	0.0007235356922725893	-0.6183161736195166	-0.1634120428850393	-0.0253885375924423	-0.01679362567597001	0.002463618757804751	-0.3049789975507686	0.04352739279013128	-0.01521634540760558	0.09406274667467394	-38.87759901041437	-28.28506750668837	-7.180171250949821	-3.399241017695392	5.099555494205351	-668.2918400205357	56.50148888681264	-0.00368564196830194	0.1340583401788828	-0.3692524338187353	-0.4418924331183109	-0.07186811291046911	-0.4737571072424737	0.8670816961319463	-0.6592905568864044	-0.6592905568864872	0.3698252119522423	0.001180784663691664	-0.3286335488273102	-0.05166133665517482	8.883082776084404e-08	1.006519237936976e-07	-5.711998253011767e-07	9.834987761706397e-07	1.159693719874971e-08	1.043141057305286e-07	-9.276919093245977e-07
1.51	-0.0542123102474146	0.08658688349092521	0.8961941115179993	0.508472457207967	-0.2208283014960376	-0.1706100532728233	-0.2533114225944913	0.5307262674849343	0.5307262674849155	0.04566397147703972	0.1743318779733955	0.2442759618993288	0.06389375850876106	0.08013938640048328	0.0675899374620816	0.2265143850448767	-1.05305080841366	0.01396860603869108	-0.2358742953243368	0.7047975911455016	-1.507879833761499	-1.507879833761355	0.2820438626894048	0.0007638704239562914	-0.6213774918267008	-0.1640575550674183	-0.02101270125011836	-0.01844885835408788	0.001860633532162346	-0.3023181897962484	0.04820059497411418	-0.01619405175972382	0.08982495961855097	-39.42985226371932	-26.72843345329627	-7.257316584614673	-3.472515055800292	4.53209791560345	-666.1907497549275	56.49812279532855	-0.01812560189583164	0.1267969999997972	-0.3988493412945701	-0.3440369395066141	-0.09475313803640681	-0.4435052318162487	0.8135681130465637	-0.5224922508852166	-0.5224922508753013	0.4114534493571212	0.004741210416999906	-0.2815052211555426	-0.06762614603420335	9.71752635208307e-08	1.030353952110484e-07	-6.665210110260516e-07	1.008983008264097e-06	1.941939112527516e-08	1.095254229074869e-07	-9.970658452692794e-07
1.52	-0.05341177911650041	0.08726899003089586	0.8984388980971916	0.4979261677538176	-0.2206930338768872	-0.1729910497497535	-0.2462240129070976	0.5156235761192524	0.5156235761193012	0.04850399051402907	0.1743396043022719	0.2380491101239084	0.06225051734721902	0.07995689583808382	0.06881864610085196	0.2223973394773638	-1.056054613813409	0.01308087248204114	-0.2403050881217445	0.7125775201891453	-1.512432692435343	-1.512432692435133	0.2859452419735857	0.0007754608754910728	-0.6239037806135556	-0.164568266729993	-0.01663686490774745	-0.02010409103222827	0.001257648307005352	-0.2996573820417356	0.05287379715808332	-0.01717175811188928	0.08558717256247962	-39.94268621787043	-25.18098110731209	-7.33230406392622	-3.550434900196915	3.959948261682079	-664.2466689045933	56.56505450743939	-0.01553390033476126	0.1188265413353855	-0.4237824768840323	-0.2588326793529881	-0.07582465531973512	-0.4485333219195701	0.7388903288286489	-0.3885565916831411	-0.3885565916830929	0.351970551623257	-0.00456807136613618	-0.221627664761479	-0.02470123269434981	1.055830797491536e-07	1.0673089390544e-07	-7.632877526129413e-07	1.036255470299859e-06	2.588297264123521e-08	1.221582910789427e-07	-1.067273175405186e-06
1.53	-0.05261328880108367	0.08796299659943944	0.9006412301993982	0.4873542317570795	-0.2205667657069504	-0.1754159275124665	-0.2390621318566175	0.5004819920744386	0.5004819920744954	0.05138255524053692	0.1743474813699034	0.2317996194515568	0.06060279969436741	0.07972782677462173	0.06996886405975	0.2180288974847459	-1.058176967054095	0.01217167837186445	-0.2446513537675926	0.7196920574953926	-1.51565938758142	-1.515659387581238	0.289745677721463	0.0007949122579464079	-0.6259046451382313	-0.1649503231771287	-0.0121981407405566	-0.02188348001389828	0.0006672734044675451	-0.2971122823496213	0.05770021619847285	-0.01827204565731388	0.08132798738784246	-40.41590365640957	-23.59862121710082	-7.460251664107838	-3.613245619607841	3.38501572976824	-662.4217728278105	56.57911073761936	-0.02858424695909494	0.1110556088188454	-0.4493718500917865	-0.1655814477193874	-0.09852972277572468	-0.4246216493420333	0.6817405703921132	-0.2560403526509855	-0.2560403526551208	0.3907276425482838	0.004627887475553039	-0.1758413320156896	-0.04123270101428131	1.140582377250838e-07	1.118204215816875e-07	-8.615903973032214e-07	1.065427926649317e-06	3.090275222096954e-08	1.42676557182052e-07	-1.138365986869269e-06
